<?xml version="1.0" encoding="UTF-8" standalone="no"?>
<!-- Created with Inkscape (http://www.inkscape.org/) -->

<svg width="271.32654" height="239.86017" viewBox="0 0 271.32654 239.86017" version="1.1" id="svg1" xml:space="preserve"
  xmlns="http://www.w3.org/2000/svg" xmlns:svg="http://www.w3.org/2000/svg">
  <defs id="defs1" />
  <g id="layer1" transform="translate(-824.33703,-284.85718)">
    <g id="g47">
      <g id="g48">
        <g id="g45" transform="matrix(0.50002224,0,0,0.49999912,553.8494,227.68655)">
          <path
            d="m 695.55078,115.84766 c -1.73554,-0.0328 -3.48764,0.0637 -5.24414,0.29492 -4.56244,0.60053 -8.96192,2.09379 -12.94727,4.39454 -16.76106,9.67633 -22.5044,31.10804 -12.82812,47.86914 9.67638,16.76223 31.10956,22.50573 47.87109,12.82812 16.76152,-9.67705 22.50411,-31.11008 12.82617,-47.87109 -6.20114,-10.73991 -17.52897,-17.28632 -29.67773,-17.51563 z m 233.42969,0 c -12.14876,0.22931 -23.47659,6.77572 -29.67774,17.51563 -9.67793,16.76101 -3.93535,38.19404 12.82617,47.87109 16.76153,9.67761 38.19471,3.93411 47.8711,-12.82812 9.67627,-16.7611 3.93293,-38.19281 -12.82813,-47.86914 -3.98535,-2.30075 -8.38483,-3.79401 -12.94726,-4.39454 -1.7565,-0.23126 -3.50861,-0.32768 -5.24414,-0.29492 z M 577.49414,319.1602 c -19.35369,0 -35.04293,15.6892 -35.04293,35.0429 0,19.3537 15.68924,35.043 35.04293,35.043 19.35369,0 35.04295,-15.6893 35.04297,-35.043 -2e-5,-19.3537 -15.68928,-35.0429 -35.04297,-35.0429 z m 469.54296,0 c -19.3537,0 -35.043,15.6892 -35.043,35.0429 0,19.3537 15.6893,35.043 35.043,35.043 19.3537,0 35.043,-15.6893 35.043,-35.043 0,-19.3537 -15.6893,-35.0429 -35.043,-35.0429 z M 694.21094,522.4824 c -12.14971,0.2292 -23.47877,6.7764 -29.67969,17.5176 -9.67628,16.7611 -3.93294,38.1928 12.82812,47.8691 16.76058,9.6766 38.19214,3.9342 47.86914,-12.8261 9.67927,-16.7615 3.93653,-38.196 -12.82617,-47.8731 -3.9855,-2.3 -8.38497,-3.7926 -12.94726,-4.3925 -1.75664,-0.2314 -3.50847,-0.3277 -5.24414,-0.295 z m 236.11132,0 c -1.73558,-0.033 -3.48758,0.064 -5.24414,0.295 -4.56324,0.6008 -8.96342,2.0948 -12.94922,4.3964 -16.76035,9.677 -22.50277,31.1086 -12.82617,47.8692 9.677,16.7603 31.10856,22.5027 47.86914,12.8261 C 963.93293,578.1928 969.67627,556.7611 960,540 953.79933,529.2594 942.47132,522.7122 930.32226,522.4824 Z"
            style="fill:#d61a88;stroke:#f8ffb8;stroke-width:3;stroke-dasharray:none" id="path45" />
        </g>
      </g>
    </g>
  </g>
</svg>
