<?xml version="1.0" encoding="UTF-8" standalone="no"?>
<!-- Created with Inkscape (http://www.inkscape.org/) -->

<svg width="271.93488" height="271.92432" viewBox="0 0 271.93488 271.92432" version="1.1" id="svg1" xml:space="preserve"
  xmlns="http://www.w3.org/2000/svg" xmlns:svg="http://www.w3.org/2000/svg">
  <defs id="defs1" />
  <g id="layer1" transform="translate(-824.03106,-268.82568)">
    <g id="g47">
      <g id="g48">
        <g id="g45" transform="matrix(0.50002224,0,0,0.49999912,553.8494,227.68655)">
          <path
            d="m 947.16928,587.8683 c 83.62302,-48.1352 135.26432,-137.1789 135.51562,-233.666 v 0 c -0.03,-96.59755 -51.5832,-185.84401 -135.24605,-234.13083 v -1.1e-4 C 906.34945,96.32053 859.72864,83.80362 812.26521,83.77839 c -47.41373,0.21467 -93.93768,12.8917 -134.90625,36.75977 l -0.002,10e-5 C 593.7338,168.67264 542.09176,257.71559 541.83936,354.2023 v -10e-5 c 0.2517,96.4874 51.89384,185.5313 135.5176,233.666 l 0.002,-10e-6 c 40.96857,23.8681 87.49252,36.5451 134.90625,36.7598 47.41374,-0.2147 93.93769,-12.8917 134.90625,-36.7598 z M 911.7475,526.68659 c -30.25088,17.4504 -64.5592,26.6379 -99.48243,26.6406 -34.92322,0 -69.23154,-9.1902 -99.48242,-26.6406 l -0.15225,-0.0878 C 651.09438,491.0332 613.18068,425.3647 613.14789,354.2902 l -0.004,-0.1759 c 0.0335,-71.0738 37.94709,-136.74133 99.48242,-172.30662 l 0.15648,-0.0879 c 30.25088,-17.45039 64.5592,-26.6379 99.48242,-26.64063 34.92353,0.001 69.23255,9.18737 99.48438,26.63672 l 0.15234,0.0879 c 61.53729,35.5655 99.45187,101.23492 99.48437,172.31052 l -0.01,0.1759 c -0.032,71.0741 -37.94528,136.7425 -99.48046,172.3086 z"
            style="fill:#ff417d;fill-opacity:0.25;stroke:#f8ffb8;stroke-width:3;stroke-dasharray:none" id="path44" />
        </g>
      </g>
    </g>
  </g>
</svg>
