<?xml version="1.0" encoding="UTF-8" standalone="no"?>
<!-- Created with Inkscape (http://www.inkscape.org/) -->

<svg
   width="1920"
   height="1080"
   viewBox="0 0 1920 1080"
   version="1.1"
   id="svg1"
   xml:space="preserve"
   xmlns="http://www.w3.org/2000/svg"
   xmlns:svg="http://www.w3.org/2000/svg"><defs
     id="defs1" /><g
     id="layer1"><g
       id="g47"><rect
         style="fill:#0e0f2c"
         id="rect1"
         width="1920"
         height="1080"
         x="0"
         y="0" /><g
         id="g48"><ellipse
           style="fill:#78d7ff;fill-opacity:0.247312;stroke:none;stroke-width:0.368154;stroke-opacity:1"
           id="circle46"
           cx="959.99854"
           cy="404.78827"
           rx="99.561516"
           ry="99.554451" /><g
           id="g45"
           transform="matrix(0.50002224,0,0,0.49999912,553.8494,227.68655)"><path
             d="m 812.26562,155.08008 -33.32031,141.41212 33.32031,57.7109 33.32032,-57.7109 z m 0,199.12302 -33.32031,57.7129 33.32031,141.4121 33.32032,-141.4121 z"
             style="fill:#10908e;stroke:#f8ffb8;stroke-width:3;stroke-dasharray:none"
             id="path43" /><path
             d="m 947.16928,587.8683 c 83.62302,-48.1352 135.26432,-137.1789 135.51562,-233.666 v 0 c -0.03,-96.59755 -51.5832,-185.84401 -135.24605,-234.13083 v -1.1e-4 C 906.34945,96.32053 859.72864,83.80362 812.26521,83.77839 c -47.41373,0.21467 -93.93768,12.8917 -134.90625,36.75977 l -0.002,10e-5 C 593.7338,168.67264 542.09176,257.71559 541.83936,354.2023 v -10e-5 c 0.2517,96.4874 51.89384,185.5313 135.5176,233.666 l 0.002,-10e-6 c 40.96857,23.8681 87.49252,36.5451 134.90625,36.7598 47.41374,-0.2147 93.93769,-12.8917 134.90625,-36.7598 z M 911.7475,526.68659 c -30.25088,17.4504 -64.5592,26.6379 -99.48243,26.6406 -34.92322,0 -69.23154,-9.1902 -99.48242,-26.6406 l -0.15225,-0.0878 C 651.09438,491.0332 613.18068,425.3647 613.14789,354.2902 l -0.004,-0.1759 c 0.0335,-71.0738 37.94709,-136.74133 99.48242,-172.30662 l 0.15648,-0.0879 c 30.25088,-17.45039 64.5592,-26.6379 99.48242,-26.64063 34.92353,0.001 69.23255,9.18737 99.48438,26.63672 l 0.15234,0.0879 c 61.53729,35.5655 99.45187,101.23492 99.48437,172.31052 l -0.01,0.1759 c -0.032,71.0741 -37.94528,136.7425 -99.48046,172.3086 z"
             style="fill:#ff417d;fill-opacity:0.25;stroke:#f8ffb8;stroke-width:3;stroke-dasharray:none"
             id="path44" /><path
             d="m 695.55078,115.84766 c -1.73554,-0.0328 -3.48764,0.0637 -5.24414,0.29492 -4.56244,0.60053 -8.96192,2.09379 -12.94727,4.39454 -16.76106,9.67633 -22.5044,31.10804 -12.82812,47.86914 9.67638,16.76223 31.10956,22.50573 47.87109,12.82812 16.76152,-9.67705 22.50411,-31.11008 12.82617,-47.87109 -6.20114,-10.73991 -17.52897,-17.28632 -29.67773,-17.51563 z m 233.42969,0 c -12.14876,0.22931 -23.47659,6.77572 -29.67774,17.51563 -9.67793,16.76101 -3.93535,38.19404 12.82617,47.87109 16.76153,9.67761 38.19471,3.93411 47.8711,-12.82812 9.67627,-16.7611 3.93293,-38.19281 -12.82813,-47.86914 -3.98535,-2.30075 -8.38483,-3.79401 -12.94726,-4.39454 -1.7565,-0.23126 -3.50861,-0.32768 -5.24414,-0.29492 z M 577.49414,319.1602 c -19.35369,0 -35.04293,15.6892 -35.04293,35.0429 0,19.3537 15.68924,35.043 35.04293,35.043 19.35369,0 35.04295,-15.6893 35.04297,-35.043 -2e-5,-19.3537 -15.68928,-35.0429 -35.04297,-35.0429 z m 469.54296,0 c -19.3537,0 -35.043,15.6892 -35.043,35.0429 0,19.3537 15.6893,35.043 35.043,35.043 19.3537,0 35.043,-15.6893 35.043,-35.043 0,-19.3537 -15.6893,-35.0429 -35.043,-35.0429 z M 694.21094,522.4824 c -12.14971,0.2292 -23.47877,6.7764 -29.67969,17.5176 -9.67628,16.7611 -3.93294,38.1928 12.82812,47.8691 16.76058,9.6766 38.19214,3.9342 47.86914,-12.8261 9.67927,-16.7615 3.93653,-38.196 -12.82617,-47.8731 -3.9855,-2.3 -8.38497,-3.7926 -12.94726,-4.3925 -1.75664,-0.2314 -3.50847,-0.3277 -5.24414,-0.295 z m 236.11132,0 c -1.73558,-0.033 -3.48758,0.064 -5.24414,0.295 -4.56324,0.6008 -8.96342,2.0948 -12.94922,4.3964 -16.76035,9.677 -22.50277,31.1086 -12.82617,47.8692 9.677,16.7603 31.10856,22.5027 47.86914,12.8261 C 963.93293,578.1928 969.67627,556.7611 960,540 953.79933,529.2594 942.47132,522.7122 930.32226,522.4824 Z"
             style="fill:#d61a88;stroke:#f8ffb8;stroke-width:3;stroke-dasharray:none"
             id="path45" /></g></g></g></g></svg>
