<?xml version="1.0" encoding="UTF-8" standalone="no"?>
<!-- Created with Inkscape (http://www.inkscape.org/) -->

<svg
   width="88.025513"
   height="88.0242"
   viewBox="0 0 88.025513 88.0242"
   version="1.1"
   id="svg1"
   xml:space="preserve"
   xmlns="http://www.w3.org/2000/svg"
   xmlns:svg="http://www.w3.org/2000/svg"><defs
     id="defs1" /><g
     id="layer1"
     transform="translate(-1532.6487,-11.912862)"><g
       id="g38"
       transform="matrix(0.1609027,0,0,0.1609027,1795.7046,-119.96729)"
       style="fill:#b0fff1;fill-opacity:1;stroke:#f8ffb8;stroke-width:6.21494;stroke-dasharray:none"><path
         d="m -1226.4258,1326.8241 c 83.623,-48.1352 135.2643,-137.1789 135.5156,-233.666 v 0 c -0.03,-96.59755 -51.5833,-185.84401 -135.2461,-234.13083 v -1.1e-4 c -41.0935,-23.75083 -87.7143,-36.26774 -135.1778,-36.29297 -47.4137,0.21467 -93.9376,12.8917 -134.9062,36.75977 l -0.01,10e-5 c -83.6232,48.13438 -135.2652,137.17733 -135.5176,233.66404 v -1e-4 c 0.2517,96.4874 51.8938,185.5313 135.5176,233.666 v 2e-4 c 40.9686,23.8681 87.4926,36.5451 134.9063,36.7598 47.4137,-0.2147 93.9377,-12.8917 134.9062,-36.7598 z m -35.4339,-61.1815 c -30.2509,17.4504 -64.5592,26.6379 -99.4824,26.6406 -34.9232,0 -69.2315,-9.1902 -99.4824,-26.6406 l -0.1524,-0.088 c -61.5359,-35.5656 -99.4496,-101.2341 -99.4824,-172.3086 v -0.1759 c 0.034,-71.0738 37.9471,-136.74133 99.4824,-172.30662 l 0.1565,-0.0879 c 30.2509,-17.45039 64.5592,-26.6379 99.4824,-26.64063 34.9236,10e-4 69.2326,9.18737 99.4844,26.63672 l 0.1524,0.0879 c 61.5372,35.5655 99.4518,101.23493 99.4843,172.31053 l -0.01,0.1759 c -0.032,71.0741 -37.9453,136.7425 -99.4804,172.3086 z"
         style="fill:#ff417d;fill-opacity:1;stroke:#f8ffb8;stroke-width:6.21494;stroke-dasharray:none"
         id="path21" /></g><g
       id="g37"
       transform="matrix(0.1609027,0,0,0.1609027,1795.7048,-119.96823)"
       style="fill:#78d7ff;fill-opacity:1;stroke:#f8ffb8;stroke-width:6.21494;stroke-dasharray:none"><path
         d="m -1361.3311,894.0408 -33.3203,141.4019 -139.132,-41.84154 105.8117,99.56034 -105.8117,99.5604 139.132,-41.8537 33.3203,141.4141 33.3203,-141.4141 139.1199,41.8537 -105.7996,-99.5604 105.7996,-99.56034 -139.1199,41.84154 z"
         style="fill:#78d7ff;fill-opacity:1;stroke:#f8ffb8;stroke-width:6.21494;stroke-dasharray:none"
         id="path36" /></g></g></svg>
